<?xml version="1.0" standalone="no"?>
<!DOCTYPE svg PUBLIC "-//W3C//DTD SVG 20010904//EN"
 "http://www.w3.org/TR/2001/REC-SVG-20010904/DTD/svg10.dtd">
<svg version="1.0" xmlns="http://www.w3.org/2000/svg"
 width="208.000000pt" height="208.000000pt" viewBox="0 0 208.000000 208.000000"
 preserveAspectRatio="xMidYMid meet">
<metadata>
Created by potrace 1.14, written by Peter Selinger 2001-2017
</metadata>
<g transform="translate(0.000000,208.000000) scale(0.100000,-0.100000)"
fill="#000000" stroke="none">
<path d="M913 2060 c-304 -43 -571 -211 -733 -462 -224 -346 -221 -779 9
-1128 20 -30 71 -92 114 -137 129 -135 273 -222 462 -280 84 -25 101 -27 275
-27 172 0 191 2 273 27 193 59 320 136 457 276 146 149 234 316 275 520 24
116 16 342 -15 456 -102 374 -405 660 -784 741 -88 18 -253 25 -333 14z"/>
</g>
</svg>
