<svg width="31" height="56" viewBox="0 0 31 56" fill="none" xmlns="http://www.w3.org/2000/svg">
<path d="M30.0607 3.06066C30.6464 2.47487 30.6464 1.52513 30.0607 0.93934C29.4749 0.353553 28.5251 0.353553 27.9393 0.93934L30.0607 3.06066ZM3 28L1.93934 26.9393L0.87868 28L1.93934 29.0607L3 28ZM27.9393 55.0607C28.5251 55.6464 29.4749 55.6464 30.0607 55.0607C30.6464 54.4749 30.6464 53.5251 30.0607 52.9393L27.9393 55.0607ZM27.9393 0.93934L1.93934 26.9393L4.06066 29.0607L30.0607 3.06066L27.9393 0.93934ZM1.93934 29.0607L27.9393 55.0607L30.0607 52.9393L4.06066 26.9393L1.93934 29.0607Z" fill="#FF9027"/>
</svg>
