<svg width="31" height="56" viewBox="0 0 31 56" fill="none" xmlns="http://www.w3.org/2000/svg">
<path d="M0.93934 52.9393C0.353554 53.5251 0.353554 54.4749 0.939341 55.0607C1.52513 55.6464 2.47487 55.6464 3.06066 55.0607L0.93934 52.9393ZM28 28L29.0607 29.0607L30.1213 28L29.0607 26.9393L28 28ZM3.06065 0.939341C2.47487 0.353556 1.52512 0.353556 0.939336 0.939341C0.353549 1.52513 0.353549 2.47488 0.939336 3.06066L3.06065 0.939341ZM3.06066 55.0607L29.0607 29.0607L26.9393 26.9393L0.93934 52.9393L3.06066 55.0607ZM29.0607 26.9393L3.06065 0.939341L0.939336 3.06066L26.9393 29.0607L29.0607 26.9393Z" fill="#FF9027"/>
</svg>
